<svg id="Layer_1" data-name="Layer 1" xmlns="http://www.w3.org/2000/svg" xmlns:xlink="http://www.w3.org/1999/xlink" viewBox="0 0 1920 1080"><defs><style>.cls-1{fill:url(#linear-gradient);}</style><linearGradient id="linear-gradient" x1="235.77" y1="-54.74" x2="1564.91" y2="1036.75" gradientUnits="userSpaceOnUse"><stop offset="0" stop-color="#8b6034"/><stop offset="0.14" stop-color="#a8824f"/><stop offset="0.46" stop-color="#f3d893"/><stop offset="0.51" stop-color="#ffe69e"/><stop offset="0.66" stop-color="#e2c07c"/><stop offset="1" stop-color="#a57033"/></linearGradient></defs><title>vector file</title><rect x="-2194.42" y="-78.12" width="4198.58" height="1218.69"/><path class="cls-1" d="M960,176.35c-200.84,0-363.65,162.81-363.65,363.65S759.16,903.65,960,903.65,1323.65,740.84,1323.65,540,1160.84,176.35,960,176.35ZM1151.3,707.8H851.38V624.62h48v35.11h224.13L1164,589.61l-40.48-70.15H899.43v41.08H1114.9v48.05H768.7L700.45,490.41,768.7,372.2h347.56v48.05H796.44l-40.51,70.16,40.51,70.13h54.94V471.39H1151.3l68.25,118.22Z"/></svg>