<svg id="Layer_1" data-name="Layer 1" xmlns="http://www.w3.org/2000/svg" xmlns:xlink="http://www.w3.org/1999/xlink" viewBox="0 0 1920 1080"><defs><style>.cls-1{fill:url(#linear-gradient);}.cls-2{fill:url(#linear-gradient-2);}.cls-3{fill:url(#linear-gradient-3);}.cls-4{fill:url(#linear-gradient-4);}.cls-5{fill:url(#linear-gradient-5);}.cls-6{fill:url(#linear-gradient-6);}.cls-7{fill:url(#linear-gradient-7);}.cls-8{fill:url(#linear-gradient-8);}.cls-9{fill:url(#linear-gradient-9);}.cls-10{fill:url(#linear-gradient-10);}.cls-11{fill:url(#linear-gradient-11);}.cls-12{fill:url(#linear-gradient-12);}.cls-13{fill:url(#linear-gradient-13);}.cls-14{fill:url(#linear-gradient-14);}.cls-15{fill:url(#linear-gradient-15);}.cls-16{fill:url(#linear-gradient-16);}.cls-17{fill:url(#linear-gradient-17);}.cls-18{fill:url(#linear-gradient-18);}.cls-19{fill:url(#linear-gradient-19);}.cls-20{fill:url(#linear-gradient-20);}.cls-21{fill:url(#linear-gradient-21);}.cls-22{fill:url(#linear-gradient-22);}.cls-23{fill:url(#linear-gradient-23);}.cls-24{fill:url(#linear-gradient-24);}.cls-25{fill:url(#linear-gradient-25);}.cls-26{fill:url(#linear-gradient-26);}.cls-27{fill:url(#linear-gradient-27);}.cls-28{fill:url(#linear-gradient-28);}.cls-29{fill:url(#linear-gradient-29);}.cls-30{fill:url(#linear-gradient-30);}.cls-31{fill:url(#linear-gradient-31);}.cls-32{fill:url(#linear-gradient-32);}.cls-33{fill:url(#linear-gradient-33);}.cls-34{fill:url(#linear-gradient-34);}.cls-35{fill:url(#linear-gradient-35);}.cls-36{fill:url(#linear-gradient-36);}.cls-37{fill:url(#linear-gradient-37);}.cls-38{fill:url(#linear-gradient-38);}.cls-39{fill:url(#linear-gradient-39);}.cls-40{fill:url(#linear-gradient-40);}.cls-41{fill:url(#linear-gradient-41);}.cls-42{fill:url(#linear-gradient-42);}.cls-43{fill:url(#linear-gradient-43);}.cls-44{fill:url(#linear-gradient-44);}.cls-45{fill:url(#linear-gradient-45);}.cls-46{fill:url(#linear-gradient-46);}.cls-47{fill:url(#linear-gradient-47);}.cls-48{fill:url(#linear-gradient-48);}.cls-49{fill:url(#linear-gradient-49);}.cls-50{fill:url(#linear-gradient-50);}.cls-51{fill:url(#linear-gradient-51);}.cls-52{fill:url(#linear-gradient-52);}.cls-53{fill:url(#linear-gradient-53);}.cls-54{fill:url(#linear-gradient-54);}.cls-55{fill:url(#linear-gradient-55);}.cls-56{fill:url(#linear-gradient-56);}.cls-57{fill:url(#linear-gradient-57);}.cls-58{fill:url(#linear-gradient-58);}.cls-59{fill:url(#linear-gradient-59);}.cls-60{fill:url(#linear-gradient-60);}.cls-61{fill:url(#linear-gradient-61);}.cls-62{fill:url(#linear-gradient-62);}.cls-63{fill:url(#linear-gradient-63);}.cls-64{fill:url(#linear-gradient-64);}.cls-65{fill:url(#linear-gradient-65);}.cls-66{fill:url(#linear-gradient-66);}.cls-67{fill:url(#linear-gradient-67);}.cls-68{fill:url(#linear-gradient-68);}.cls-69{fill:url(#linear-gradient-69);}.cls-70{fill:url(#linear-gradient-70);}.cls-71{fill:url(#linear-gradient-71);}.cls-72{fill:url(#linear-gradient-72);}.cls-73{fill:url(#linear-gradient-73);}</style><linearGradient id="linear-gradient" x1="585.85" y1="145.17" x2="1272.5" y2="709.04" gradientUnits="userSpaceOnUse"><stop offset="0" stop-color="#8b6034"/><stop offset="0.14" stop-color="#a8824f"/><stop offset="0.46" stop-color="#f3d893"/><stop offset="0.51" stop-color="#ffe69e"/><stop offset="0.66" stop-color="#e2c07c"/><stop offset="1" stop-color="#a57033"/></linearGradient><linearGradient id="linear-gradient-2" x1="238.53" y1="569.43" x2="1335.96" y2="1218.19" xlink:href="#linear-gradient"/><linearGradient id="linear-gradient-3" x1="238.53" y1="569.43" x2="1335.96" y2="1218.19" xlink:href="#linear-gradient"/><linearGradient id="linear-gradient-4" x1="251.29" y1="547.86" x2="1348.72" y2="1196.62" xlink:href="#linear-gradient"/><linearGradient id="linear-gradient-5" x1="251.29" y1="547.86" x2="1348.72" y2="1196.61" xlink:href="#linear-gradient"/><linearGradient id="linear-gradient-6" x1="265.32" y1="524.12" x2="1362.75" y2="1172.88" xlink:href="#linear-gradient"/><linearGradient id="linear-gradient-7" x1="265.32" y1="524.12" x2="1362.75" y2="1172.88" xlink:href="#linear-gradient"/><linearGradient id="linear-gradient-8" x1="288.03" y1="485.7" x2="1385.46" y2="1134.46" xlink:href="#linear-gradient"/><linearGradient id="linear-gradient-9" x1="288.03" y1="485.7" x2="1385.46" y2="1134.46" xlink:href="#linear-gradient"/><linearGradient id="linear-gradient-10" x1="302" y1="462.07" x2="1399.43" y2="1110.83" xlink:href="#linear-gradient"/><linearGradient id="linear-gradient-11" x1="301.97" y1="462.13" x2="1399.4" y2="1110.89" xlink:href="#linear-gradient"/><linearGradient id="linear-gradient-12" x1="319.13" y1="433.09" x2="1416.56" y2="1081.85" xlink:href="#linear-gradient"/><linearGradient id="linear-gradient-13" x1="319.16" y1="433.04" x2="1416.59" y2="1081.8" xlink:href="#linear-gradient"/><linearGradient id="linear-gradient-14" x1="330.01" y1="414.68" x2="1427.44" y2="1063.44" xlink:href="#linear-gradient"/><linearGradient id="linear-gradient-15" x1="329.98" y1="414.74" x2="1427.41" y2="1063.5" xlink:href="#linear-gradient"/><linearGradient id="linear-gradient-16" x1="345.82" y1="387.94" x2="1443.25" y2="1036.7" xlink:href="#linear-gradient"/><linearGradient id="linear-gradient-17" x1="345.83" y1="387.94" x2="1443.26" y2="1036.7" xlink:href="#linear-gradient"/><linearGradient id="linear-gradient-18" x1="359.26" y1="365.21" x2="1456.69" y2="1013.97" xlink:href="#linear-gradient"/><linearGradient id="linear-gradient-19" x1="359.26" y1="365.21" x2="1456.69" y2="1013.97" xlink:href="#linear-gradient"/><linearGradient id="linear-gradient-20" x1="381.77" y1="327.13" x2="1479.2" y2="975.89" xlink:href="#linear-gradient"/><linearGradient id="linear-gradient-21" x1="381.74" y1="327.18" x2="1479.17" y2="975.94" xlink:href="#linear-gradient"/><linearGradient id="linear-gradient-22" x1="395.32" y1="304.21" x2="1492.75" y2="952.97" xlink:href="#linear-gradient"/><linearGradient id="linear-gradient-23" x1="395.32" y1="304.22" x2="1492.75" y2="952.97" xlink:href="#linear-gradient"/><linearGradient id="linear-gradient-24" x1="406.29" y1="285.65" x2="1503.72" y2="934.41" xlink:href="#linear-gradient"/><linearGradient id="linear-gradient-25" x1="406.3" y1="285.65" x2="1503.72" y2="934.41" xlink:href="#linear-gradient"/><linearGradient id="linear-gradient-26" x1="419.07" y1="264.04" x2="1516.5" y2="912.8" xlink:href="#linear-gradient"/><linearGradient id="linear-gradient-27" x1="419.04" y1="264.09" x2="1516.47" y2="912.85" xlink:href="#linear-gradient"/><linearGradient id="linear-gradient-28" x1="432.45" y1="241.41" x2="1529.88" y2="890.17" xlink:href="#linear-gradient"/><linearGradient id="linear-gradient-29" x1="432.42" y1="241.46" x2="1529.85" y2="890.22" xlink:href="#linear-gradient"/><linearGradient id="linear-gradient-30" x1="450.16" y1="211.44" x2="1547.59" y2="860.2" xlink:href="#linear-gradient"/><linearGradient id="linear-gradient-31" x1="450.16" y1="211.44" x2="1547.59" y2="860.2" xlink:href="#linear-gradient"/><linearGradient id="linear-gradient-32" x1="463.63" y1="188.66" x2="1561.06" y2="837.42" xlink:href="#linear-gradient"/><linearGradient id="linear-gradient-33" x1="463.63" y1="188.66" x2="1561.06" y2="837.42" xlink:href="#linear-gradient"/><linearGradient id="linear-gradient-34" x1="479.44" y1="161.91" x2="1576.87" y2="810.67" xlink:href="#linear-gradient"/><linearGradient id="linear-gradient-35" x1="479.44" y1="161.91" x2="1576.87" y2="810.67" xlink:href="#linear-gradient"/><linearGradient id="linear-gradient-36" x1="244.2" y1="559.85" x2="1341.63" y2="1208.61" xlink:href="#linear-gradient"/><linearGradient id="linear-gradient-37" x1="244.2" y1="559.85" x2="1341.63" y2="1208.61" xlink:href="#linear-gradient"/><linearGradient id="linear-gradient-38" x1="253.24" y1="544.54" x2="1350.68" y2="1193.3" xlink:href="#linear-gradient"/><linearGradient id="linear-gradient-39" x1="253.24" y1="544.55" x2="1350.67" y2="1193.3" xlink:href="#linear-gradient"/><linearGradient id="linear-gradient-40" x1="262.42" y1="529.03" x2="1359.85" y2="1177.78" xlink:href="#linear-gradient"/><linearGradient id="linear-gradient-41" x1="262.42" y1="529.03" x2="1359.85" y2="1177.79" xlink:href="#linear-gradient"/><linearGradient id="linear-gradient-42" x1="270.97" y1="514.56" x2="1368.4" y2="1163.31" xlink:href="#linear-gradient"/><linearGradient id="linear-gradient-43" x1="270.97" y1="514.56" x2="1368.4" y2="1163.31" xlink:href="#linear-gradient"/><linearGradient id="linear-gradient-44" x1="278.62" y1="501.62" x2="1376.05" y2="1150.38" xlink:href="#linear-gradient"/><linearGradient id="linear-gradient-45" x1="278.62" y1="501.62" x2="1376.05" y2="1150.38" xlink:href="#linear-gradient"/><linearGradient id="linear-gradient-46" x1="287.15" y1="487.2" x2="1384.58" y2="1135.96" xlink:href="#linear-gradient"/><linearGradient id="linear-gradient-47" x1="287.15" y1="487.2" x2="1384.57" y2="1135.95" xlink:href="#linear-gradient"/><linearGradient id="linear-gradient-48" x1="299.5" y1="466.3" x2="1396.93" y2="1115.06" xlink:href="#linear-gradient"/><linearGradient id="linear-gradient-49" x1="299.5" y1="466.3" x2="1396.93" y2="1115.06" xlink:href="#linear-gradient"/><linearGradient id="linear-gradient-50" x1="306.86" y1="453.85" x2="1404.29" y2="1102.61" xlink:href="#linear-gradient"/><linearGradient id="linear-gradient-51" x1="306.84" y1="453.88" x2="1404.28" y2="1102.64" xlink:href="#linear-gradient"/><linearGradient id="linear-gradient-52" x1="316.76" y1="437.11" x2="1414.19" y2="1085.86" xlink:href="#linear-gradient"/><linearGradient id="linear-gradient-53" x1="316.77" y1="437.08" x2="1414.2" y2="1085.84" xlink:href="#linear-gradient"/><linearGradient id="linear-gradient-54" x1="323.14" y1="426.32" x2="1420.56" y2="1075.08" xlink:href="#linear-gradient"/><linearGradient id="linear-gradient-55" x1="323.12" y1="426.35" x2="1420.55" y2="1075.1" xlink:href="#linear-gradient"/><linearGradient id="linear-gradient-56" x1="332.4" y1="410.64" x2="1429.84" y2="1059.4" xlink:href="#linear-gradient"/><linearGradient id="linear-gradient-57" x1="332.4" y1="410.64" x2="1429.84" y2="1059.4" xlink:href="#linear-gradient"/><linearGradient id="linear-gradient-58" x1="339.57" y1="398.51" x2="1437" y2="1047.27" xlink:href="#linear-gradient"/><linearGradient id="linear-gradient-59" x1="339.57" y1="398.51" x2="1437" y2="1047.27" xlink:href="#linear-gradient"/><linearGradient id="linear-gradient-60" x1="352.66" y1="376.37" x2="1450.09" y2="1025.13" xlink:href="#linear-gradient"/><linearGradient id="linear-gradient-61" x1="352.65" y1="376.4" x2="1450.08" y2="1025.16" xlink:href="#linear-gradient"/><linearGradient id="linear-gradient-62" x1="361.49" y1="361.44" x2="1458.92" y2="1010.2" xlink:href="#linear-gradient"/><linearGradient id="linear-gradient-63" x1="361.49" y1="361.44" x2="1458.92" y2="1010.2" xlink:href="#linear-gradient"/><linearGradient id="linear-gradient-64" x1="370.83" y1="345.64" x2="1468.26" y2="994.4" xlink:href="#linear-gradient"/><linearGradient id="linear-gradient-65" x1="370.84" y1="345.61" x2="1468.28" y2="994.37" xlink:href="#linear-gradient"/><linearGradient id="linear-gradient-66" x1="376.21" y1="336.53" x2="1473.65" y2="985.29" xlink:href="#linear-gradient"/><linearGradient id="linear-gradient-67" x1="376.22" y1="336.53" x2="1473.65" y2="985.29" xlink:href="#linear-gradient"/><linearGradient id="linear-gradient-68" x1="382.65" y1="325.64" x2="1480.08" y2="974.4" xlink:href="#linear-gradient"/><linearGradient id="linear-gradient-69" x1="382.65" y1="325.64" x2="1480.08" y2="974.4" xlink:href="#linear-gradient"/><linearGradient id="linear-gradient-70" x1="393.29" y1="307.64" x2="1490.73" y2="956.4" xlink:href="#linear-gradient"/><linearGradient id="linear-gradient-71" x1="393.31" y1="307.62" x2="1490.74" y2="956.38" xlink:href="#linear-gradient"/><linearGradient id="linear-gradient-72" x1="401.74" y1="293.36" x2="1499.17" y2="942.11" xlink:href="#linear-gradient"/><linearGradient id="linear-gradient-73" x1="401.74" y1="293.36" x2="1499.17" y2="942.11" xlink:href="#linear-gradient"/></defs><title>vector file</title><rect x="-124.42" y="-78.12" width="4198.58" height="1218.69"/><path class="cls-1" d="M960,264.55c-103.76,0-187.87,84.11-187.87,187.87S856.24,640.28,960,640.28s187.87-84.11,187.87-187.86S1063.76,264.55,960,264.55Zm98.83,274.55H903.89v-43h24.82v18.14H1044.5l20.91-36.22L1044.5,441.8H928.71V463H1040v24.82H861.17L825.91,426.8l35.26-61.07h179.55v24.82H875.5L854.58,426.8,875.5,463h28.39V417h154.94l35.26,61.08Z"/><path class="cls-2" d="M506.11,700.16V706H494.46v37.92h-7.18V706H475.57v-5.86Z"/><path class="cls-3" d="M494.8,744.27h-7.86V706.36H475.23v-6.53h31.22v6.53H494.8Zm-7.18-.67h6.51V705.68h11.65V700.5H475.9v5.18h11.72Z"/><path class="cls-4" d="M563.43,700.16v43.78h-7.18V724.79h-20.6v19.15h-7.18V700.16h7.18v18.77h20.6V700.16Z"/><path class="cls-5" d="M563.76,744.27h-7.85V725.12H536v19.15h-7.85V699.83H536V718.6h19.92V699.83h7.85Zm-7.18-.67h6.51V700.5h-6.51v18.77H535.32V700.5h-6.51v43.1h6.51V724.45h21.26Z"/><path class="cls-6" d="M595.17,706v12.85h15.12v5.85H595.17v13.42h17v5.86H588V700.1h24.19V706Z"/><path class="cls-7" d="M612.51,744.27H587.65V699.76h24.86v6.53h-17v12.18h15.11V725H595.51v12.74h17Zm-24.18-.67h23.51v-5.19h-17V724.33H610v-5.19H594.83V705.62h17v-5.19H588.33Z"/><path class="cls-8" d="M668.2,710.43a21.28,21.28,0,0,1,8.12-8A23.93,23.93,0,0,1,700,703a19.56,19.56,0,0,1,7.9,9.73h-8.63a11.54,11.54,0,0,0-4.72-5.16,14,14,0,0,0-7-1.71,15.31,15.31,0,0,0-7.75,2,13.57,13.57,0,0,0-5.32,5.6,19.8,19.8,0,0,0,0,17,13.77,13.77,0,0,0,5.32,5.63,15,15,0,0,0,7.75,2,14.08,14.08,0,0,0,7-1.7,11.61,11.61,0,0,0,4.72-5.17h8.63a19.36,19.36,0,0,1-7.9,9.7,23,23,0,0,1-12.44,3.4,22.63,22.63,0,0,1-11.28-2.86,21.35,21.35,0,0,1-8.09-8,23.71,23.71,0,0,1,0-23.05Z"/><path class="cls-9" d="M687.57,744.65a23,23,0,0,1-11.44-2.91,21.78,21.78,0,0,1-8.22-8.09,24,24,0,0,1,0-23.39h0a21.65,21.65,0,0,1,8.25-8.09,24.22,24.22,0,0,1,24,.57,19.94,19.94,0,0,1,8,9.9l.18.46h-9.33l-.09-.19a11.24,11.24,0,0,0-4.59-5,13.72,13.72,0,0,0-6.82-1.66,15,15,0,0,0-7.58,1.91,13.33,13.33,0,0,0-5.2,5.47,19.46,19.46,0,0,0,0,16.69,13.63,13.63,0,0,0,5.2,5.51,14.86,14.86,0,0,0,7.58,1.93,13.72,13.72,0,0,0,6.82-1.65,11.35,11.35,0,0,0,4.59-5l.09-.19h9.33l-.18.46a19.8,19.8,0,0,1-8,9.86A23.42,23.42,0,0,1,687.57,744.65Zm-19.08-34a23.33,23.33,0,0,0,0,22.71,21.07,21.07,0,0,0,8,7.85A22.41,22.41,0,0,0,687.57,744a22.8,22.8,0,0,0,12.26-3.35,19,19,0,0,0,7.58-9.08h-7.92a11.92,11.92,0,0,1-4.77,5.12,14.37,14.37,0,0,1-7.15,1.74,15.55,15.55,0,0,1-7.92-2,14.21,14.21,0,0,1-5.45-5.78,20.09,20.09,0,0,1,0-17.31,13.93,13.93,0,0,1,5.45-5.74,15.64,15.64,0,0,1,7.92-2,14.47,14.47,0,0,1,7.15,1.74,12,12,0,0,1,4.77,5.12h7.92a19.21,19.21,0,0,0-7.58-9.11,23.57,23.57,0,0,0-23.34-.56,21.08,21.08,0,0,0-8,7.85Z"/><path class="cls-10" d="M754.14,743.94l-10.08-17.51h-5.48v17.51H731.4V700.16h15.12a18.71,18.71,0,0,1,8.53,1.77,12.25,12.25,0,0,1,5.23,4.72,12.89,12.89,0,0,1,1.73,6.61,13.09,13.09,0,0,1-2.49,7.78,12.64,12.64,0,0,1-7.65,4.76l10.83,18.14ZM738.58,720.7h7.94c2.68,0,4.71-.68,6.08-2a7.27,7.27,0,0,0,2-5.42,7,7,0,0,0-2-5.32c-1.35-1.28-3.38-1.92-6.11-1.92h-7.94Z"/><path class="cls-11" d="M763.3,744.27H754l-10.08-17.51h-5v17.51h-7.85V699.83h15.45a19.14,19.14,0,0,1,8.68,1.8,12.6,12.6,0,0,1,5.37,4.85,13.25,13.25,0,0,1,1.78,6.78,13.52,13.52,0,0,1-2.55,8,12.83,12.83,0,0,1-7.41,4.77Zm-9-.67h7.78l-10.76-18,.44-.11a12.32,12.32,0,0,0,7.46-4.62,12.85,12.85,0,0,0,2.43-7.59,12.56,12.56,0,0,0-1.69-6.44,11.9,11.9,0,0,0-5.09-4.59,18.51,18.51,0,0,0-8.38-1.73H731.74v43.1h6.51V726.09h6ZM746.52,721h-8.27V705.68h8.27c2.8,0,4.94.68,6.34,2a7.33,7.33,0,0,1,2.12,5.56,7.6,7.6,0,0,1-2.15,5.66C751.41,720.32,749.28,721,746.52,721Zm-7.6-.67h7.6c2.58,0,4.55-.65,5.84-1.92a7,7,0,0,0,1.95-5.18,6.75,6.75,0,0,0-1.91-5.08c-1.28-1.21-3.26-1.82-5.88-1.82h-7.6Z"/><path class="cls-12" d="M818.76,700.16l-14.49,27.9v15.88h-7.18V728.06l-14.55-27.9h8l10.14,21.48,10.14-21.48Z"/><path class="cls-13" d="M804.61,744.27h-7.85V728.15L782,699.83h8.77l9.92,21,9.93-21h8.7l-14.7,28.32Zm-7.18-.67h6.51l0-15.69,14.23-27.41H811l-10.36,21.93L790.33,700.5H783.1L797.43,728Z"/><path class="cls-14" d="M868.58,719.5a11.83,11.83,0,0,1-5,4.82,18.69,18.69,0,0,1-8.88,1.86h-7.94v17.76h-7.18V700.16h15.12a19.13,19.13,0,0,1,8.53,1.73,12,12,0,0,1,5.23,4.7,12.79,12.79,0,0,1,1.73,6.61A13.19,13.19,0,0,1,868.58,719.5Zm-7.81-1a6.81,6.81,0,0,0,2-5.26q0-7.19-8.13-7.18h-7.94v14.3h7.94Q858.76,720.32,860.77,718.46Z"/><path class="cls-15" d="M847.06,744.27h-7.85V699.83h15.45a19.52,19.52,0,0,1,8.68,1.76,12.44,12.44,0,0,1,5.37,4.83,13.23,13.23,0,0,1,1.78,6.78,13.65,13.65,0,0,1-1.61,6.46h0a12.18,12.18,0,0,1-5.18,5,19.11,19.11,0,0,1-9,1.9h-7.6Zm-7.18-.67h6.51V725.84h8.27a18.41,18.41,0,0,0,8.72-1.82,11.46,11.46,0,0,0,4.9-4.68h0a12.92,12.92,0,0,0,1.54-6.14,12.56,12.56,0,0,0-1.69-6.44,11.83,11.83,0,0,0-5.08-4.57,19,19,0,0,0-8.39-1.69H839.88Zm14.78-23h-8.27v-15h8.27c5.61,0,8.46,2.53,8.46,7.52a7.16,7.16,0,0,1-2.12,5.51C859.6,720,857.46,720.65,854.66,720.65Zm-7.6-.67h7.6c2.63,0,4.61-.59,5.88-1.77h0a6.47,6.47,0,0,0,1.91-5c0-4.61-2.55-6.84-7.79-6.84h-7.6Z"/><path class="cls-16" d="M920.41,700.16V706H908.76v37.92h-7.18V706H889.87v-5.86Z"/><path class="cls-17" d="M909.1,744.27h-7.85V706.36H889.53v-6.53h31.22v6.53H909.1Zm-7.18-.67h6.51V705.68h11.65V700.5H890.2v5.18h11.72Z"/><path class="cls-18" d="M951.5,741.51a21.25,21.25,0,0,1-8.13-8,23.76,23.76,0,0,1,0-23.08,21.31,21.31,0,0,1,8.13-8,23.63,23.63,0,0,1,22.54,0,21.09,21.09,0,0,1,8.1,8,24,24,0,0,1,0,23.08,21,21,0,0,1-8.1,8,23.56,23.56,0,0,1-22.54,0Zm19-5.35a13.82,13.82,0,0,0,5.32-5.67,18.22,18.22,0,0,0,1.92-8.54,18,18,0,0,0-1.92-8.5,13.63,13.63,0,0,0-5.32-5.6,16.3,16.3,0,0,0-15.5,0,13.63,13.63,0,0,0-5.32,5.6,18,18,0,0,0-1.92,8.5,18.22,18.22,0,0,0,1.92,8.54,13.82,13.82,0,0,0,5.32,5.67,16.16,16.16,0,0,0,15.5,0Z"/><path class="cls-19" d="M962.74,744.71a23.11,23.11,0,0,1-11.41-2.91h0a21.66,21.66,0,0,1-8.25-8.12,24.07,24.07,0,0,1,0-23.42,21.72,21.72,0,0,1,8.25-8.09,23.94,23.94,0,0,1,22.88,0,21.5,21.5,0,0,1,8.22,8.09,24.35,24.35,0,0,1,0,23.42,21.44,21.44,0,0,1-8.22,8.12A23.23,23.23,0,0,1,962.74,744.71Zm0-44.78a22.48,22.48,0,0,0-11.08,2.82,21.23,21.23,0,0,0-8,7.85,23.46,23.46,0,0,0,0,22.74,21,21,0,0,0,8,7.88h0a23.29,23.29,0,0,0,22.22,0,20.8,20.8,0,0,0,8-7.88,23.67,23.67,0,0,0,0-22.74,21,21,0,0,0-8-7.85A22.6,22.6,0,0,0,962.74,699.93Zm0,38.55a15.58,15.58,0,0,1-7.92-2,14.23,14.23,0,0,1-5.45-5.81,18.59,18.59,0,0,1-2-8.69,18.39,18.39,0,0,1,2-8.65,13.89,13.89,0,0,1,5.46-5.74,16.64,16.64,0,0,1,15.82,0,14,14,0,0,1,5.46,5.74,18.39,18.39,0,0,1,1.95,8.65,18.58,18.58,0,0,1-1.95,8.69,14.17,14.17,0,0,1-5.45,5.81h0A15.52,15.52,0,0,1,962.74,738.48Zm0-32.25a15,15,0,0,0-7.58,1.91,13.25,13.25,0,0,0-5.19,5.47,17.72,17.72,0,0,0-1.89,8.34,17.91,17.91,0,0,0,1.89,8.38,13.49,13.49,0,0,0,5.19,5.54,15.78,15.78,0,0,0,15.16,0,13.49,13.49,0,0,0,5.19-5.54,19.53,19.53,0,0,0,0-16.72,13.25,13.25,0,0,0-5.19-5.47A15,15,0,0,0,962.74,706.23Z"/><path class="cls-20" d="M1065.31,702.84a19.18,19.18,0,0,1,8.12,7.68,23.15,23.15,0,0,1,2.87,11.69,22.62,22.62,0,0,1-2.87,11.59,19,19,0,0,1-8.12,7.52,27.11,27.11,0,0,1-12.25,2.62h-14.3V700.16h14.3A26.73,26.73,0,0,1,1065.31,702.84Zm-.47,31.08q4.08-4.15,4.09-11.71t-4.09-11.91q-4.1-4.27-11.78-4.28h-7.12v32.06h7.12Q1060.74,738.08,1064.84,733.92Z"/><path class="cls-21" d="M1053.06,744.27h-14.64V699.83h14.64a27.12,27.12,0,0,1,12.4,2.71h0a19.56,19.56,0,0,1,8.26,7.82,23.44,23.44,0,0,1,2.91,11.85,23,23,0,0,1-2.91,11.75,19.31,19.31,0,0,1-8.26,7.66A27.64,27.64,0,0,1,1053.06,744.27Zm-14-.67h14a27,27,0,0,0,12.1-2.58,18.65,18.65,0,0,0,8-7.39,22.41,22.41,0,0,0,2.82-11.42,22.92,22.92,0,0,0-2.82-11.52,18.83,18.83,0,0,0-8-7.55h0a26.53,26.53,0,0,0-12.1-2.64h-14Zm14-5.19h-7.46V705.68h7.46c5.19,0,9.23,1.48,12,4.39s4.19,7,4.19,12.14-1.41,9.12-4.2,11.95S1058.25,738.41,1053.06,738.41Zm-6.78-.67h6.78c5,0,8.88-1.36,11.54-4h0c2.65-2.7,4-6.56,4-11.48s-1.34-8.9-4-11.68-6.53-4.17-11.53-4.17h-6.78Z"/><path class="cls-22" d="M1105.71,700.16v43.78h-7.18V700.16Z"/><path class="cls-23" d="M1106.05,744.27h-7.85V699.83h7.85Zm-7.18-.67h6.51V700.5h-6.51Z"/><path class="cls-24" d="M1136.76,742.83a12.92,12.92,0,0,1-5.54-4.37,11.17,11.17,0,0,1-2-6.62h7.69a6.93,6.93,0,0,0,2.23,4.66,7.93,7.93,0,0,0,5.58,1.83,8.61,8.61,0,0,0,5.79-1.79,5.83,5.83,0,0,0,2.08-4.63,5.05,5.05,0,0,0-1.29-3.59,8.51,8.51,0,0,0-3.21-2.14,47.9,47.9,0,0,0-5.32-1.64,49.57,49.57,0,0,1-7-2.3,11.57,11.57,0,0,1-4.57-3.62,10.47,10.47,0,0,1-1.89-6.55,11.66,11.66,0,0,1,1.89-6.62,12.06,12.06,0,0,1,5.29-4.34,19.18,19.18,0,0,1,7.87-1.51,16.43,16.43,0,0,1,10.43,3.18,11.7,11.7,0,0,1,4.5,8.72h-7.94a5.72,5.72,0,0,0-2.26-4.09,8.37,8.37,0,0,0-5.48-1.7,7.77,7.77,0,0,0-5,1.57,5.48,5.48,0,0,0-1.95,4.53,4.63,4.63,0,0,0,1.22,3.31,8.79,8.79,0,0,0,3.12,2,49.42,49.42,0,0,0,5.17,1.64,52.44,52.44,0,0,1,7.08,2.39,11.85,11.85,0,0,1,4.66,3.68,10.62,10.62,0,0,1,1.92,6.65,12,12,0,0,1-1.79,6.3,13,13,0,0,1-5.23,4.75,17.21,17.21,0,0,1-8.09,1.8A19.6,19.6,0,0,1,1136.76,742.83Z"/><path class="cls-25" d="M1144.7,744.71a20,20,0,0,1-8.07-1.57h0a13.39,13.39,0,0,1-5.68-4.49,11.49,11.49,0,0,1-2.08-6.81v-.33h8.33l0,.3a6.68,6.68,0,0,0,2.13,4.45,7.65,7.65,0,0,0,5.35,1.73,8.27,8.27,0,0,0,5.57-1.71,5.47,5.47,0,0,0,2-4.37,4.73,4.73,0,0,0-1.21-3.36,8.23,8.23,0,0,0-3.08-2.06,47.38,47.38,0,0,0-5.29-1.63,50.84,50.84,0,0,1-7-2.31,11.9,11.9,0,0,1-4.7-3.73,10.83,10.83,0,0,1-2-6.75,12,12,0,0,1,2-6.8,12.45,12.45,0,0,1,5.43-4.47,19.7,19.7,0,0,1,8-1.54,16.77,16.77,0,0,1,10.63,3.25,12.13,12.13,0,0,1,4.64,9l0,.37h-8.61l0-.31a5.46,5.46,0,0,0-2.15-3.87,8.12,8.12,0,0,0-5.26-1.62,7.51,7.51,0,0,0-4.83,1.5,5.12,5.12,0,0,0-1.83,4.27,4.22,4.22,0,0,0,1.14,3.08,8.47,8.47,0,0,0,3,2,48.6,48.6,0,0,0,5.12,1.62,55.35,55.35,0,0,1,7.14,2.41,12.18,12.18,0,0,1,4.79,3.79,11,11,0,0,1,2,6.85,12.35,12.35,0,0,1-1.84,6.47,13.39,13.39,0,0,1-5.36,4.88A17.61,17.61,0,0,1,1144.7,744.71Zm-7.8-2.18a19.41,19.41,0,0,0,7.8,1.51,16.94,16.94,0,0,0,7.94-1.76,12.67,12.67,0,0,0,5.09-4.63,11.65,11.65,0,0,0,1.75-6.12,10.31,10.31,0,0,0-1.85-6.44,11.5,11.5,0,0,0-4.53-3.58,54.26,54.26,0,0,0-7-2.38,50,50,0,0,1-5.2-1.65,9.1,9.1,0,0,1-3.24-2.13,4.93,4.93,0,0,1-1.32-3.54,5.81,5.81,0,0,1,2.08-4.79,8.1,8.1,0,0,1,5.25-1.65,8.74,8.74,0,0,1,5.69,1.78,6.16,6.16,0,0,1,2.36,4h7.26a11.37,11.37,0,0,0-4.34-8.12,16.18,16.18,0,0,0-10.22-3.11,19,19,0,0,0-7.73,1.48,11.81,11.81,0,0,0-5.15,4.23,11.31,11.31,0,0,0-1.83,6.43,10.16,10.16,0,0,0,1.82,6.34,11.19,11.19,0,0,0,4.43,3.52,49.35,49.35,0,0,0,6.91,2.28,50.25,50.25,0,0,1,5.36,1.65,9.08,9.08,0,0,1,3.34,2.23,5.43,5.43,0,0,1,1.38,3.82,6.18,6.18,0,0,1-2.2,4.88,8.9,8.9,0,0,1-6,1.88,8.28,8.28,0,0,1-5.8-1.92,7.19,7.19,0,0,1-2.31-4.57h-7a10.81,10.81,0,0,0,2,6.08,12.75,12.75,0,0,0,5.41,4.27Z"/><path class="cls-26" d="M1212.47,719.5a11.83,11.83,0,0,1-5,4.82,18.69,18.69,0,0,1-8.88,1.86h-7.94v17.76h-7.18V700.16h15.12a19.13,19.13,0,0,1,8.53,1.73,12.09,12.09,0,0,1,5.23,4.7,12.79,12.79,0,0,1,1.73,6.61A13.19,13.19,0,0,1,1212.47,719.5Zm-7.81-1a6.81,6.81,0,0,0,2-5.26q0-7.19-8.12-7.18h-7.94v14.3h7.94C1201.28,720.32,1203.31,719.7,1204.66,718.46Z"/><path class="cls-27" d="M1191,744.27h-7.85V699.83h15.45a19.55,19.55,0,0,1,8.68,1.76,12.44,12.44,0,0,1,5.37,4.83,13.25,13.25,0,0,1,1.78,6.78,13.55,13.55,0,0,1-1.62,6.46h0a12.1,12.1,0,0,1-5.17,5,19.11,19.11,0,0,1-9,1.9H1191Zm-7.18-.67h6.51V725.84h8.27a18.44,18.44,0,0,0,8.72-1.82,11.46,11.46,0,0,0,4.9-4.68h0a12.94,12.94,0,0,0,1.54-6.14,12.56,12.56,0,0,0-1.69-6.44,11.8,11.8,0,0,0-5.09-4.57,18.9,18.9,0,0,0-8.38-1.69h-14.78Zm14.78-23h-8.27v-15h8.27c5.61,0,8.46,2.53,8.46,7.52a7.15,7.15,0,0,1-2.13,5.51h0C1203.48,720,1201.35,720.65,1198.55,720.65ZM1191,720h7.6c2.63,0,4.61-.59,5.88-1.77h0a6.47,6.47,0,0,0,1.91-5c0-4.61-2.55-6.84-7.79-6.84H1191Z"/><path class="cls-28" d="M1262.41,735h-18.32l-3.15,9h-7.5l15.68-43.84h8.32l15.68,43.84h-7.56Zm-2-5.85-7.12-20.35-7.18,20.35Z"/><path class="cls-29" d="M1273.6,744.27h-8.28l-3.14-8.94h-17.86l-3.15,8.94H1233l.16-.45,15.77-44.06h8.78l.08.23Zm-7.8-.67h6.84l-15.44-43.17h-7.84l-15.44,43.17h6.78l3.15-8.94h18.8Zm-4.93-14.13h-15.24l7.65-21.69Zm-14.3-.67h13.35l-6.64-19Z"/><path class="cls-30" d="M1323.32,700.16V706h-11.65v37.92h-7.18V706h-11.72v-5.86Z"/><path class="cls-31" d="M1312,744.27h-7.85V706.36h-11.72v-6.53h31.22v6.53H1312Zm-7.18-.67h6.51V705.68H1323V700.5h-29.87v5.18h11.71Z"/><path class="cls-32" d="M1346.28,710.43a21.28,21.28,0,0,1,8.12-8,23.91,23.91,0,0,1,23.68.57,19.58,19.58,0,0,1,7.91,9.73h-8.63a11.56,11.56,0,0,0-4.73-5.16,13.92,13.92,0,0,0-7-1.71,15.27,15.27,0,0,0-7.74,2,13.59,13.59,0,0,0-5.33,5.6,19.8,19.8,0,0,0,0,17,13.79,13.79,0,0,0,5.33,5.63,15,15,0,0,0,7.74,2,14,14,0,0,0,7-1.7,11.63,11.63,0,0,0,4.73-5.17H1386a19.38,19.38,0,0,1-7.91,9.7,23,23,0,0,1-12.44,3.4,22.62,22.62,0,0,1-11.27-2.86,21.35,21.35,0,0,1-8.09-8,23.64,23.64,0,0,1,0-23.05Z"/><path class="cls-33" d="M1365.64,744.65a23.09,23.09,0,0,1-11.44-2.91,21.76,21.76,0,0,1-8.21-8.09,24,24,0,0,1,0-23.39h0a21.65,21.65,0,0,1,8.25-8.09,24.22,24.22,0,0,1,24,.57,20,20,0,0,1,8,9.9l.18.46h-9.33l-.09-.19a11.3,11.3,0,0,0-4.59-5,13.76,13.76,0,0,0-6.83-1.66,15,15,0,0,0-7.58,1.91,13.25,13.25,0,0,0-5.19,5.47,19.46,19.46,0,0,0,0,16.69,13.49,13.49,0,0,0,5.2,5.51,14.85,14.85,0,0,0,7.57,1.93,13.76,13.76,0,0,0,6.83-1.65,11.41,11.41,0,0,0,4.59-5l.09-.19h9.33l-.18.46a19.85,19.85,0,0,1-8,9.86A23.46,23.46,0,0,1,1365.64,744.65Zm-19.08-34a23.4,23.4,0,0,0,0,22.71,21.22,21.22,0,0,0,8,7.85,22.41,22.41,0,0,0,11.11,2.82,22.78,22.78,0,0,0,12.26-3.35,19.12,19.12,0,0,0,7.59-9.08h-7.92a11.92,11.92,0,0,1-4.77,5.12,14.41,14.41,0,0,1-7.16,1.74,15.54,15.54,0,0,1-7.91-2,14.21,14.21,0,0,1-5.45-5.78,20.09,20.09,0,0,1,0-17.31,13.86,13.86,0,0,1,5.45-5.74,15.63,15.63,0,0,1,7.91-2,14.51,14.51,0,0,1,7.16,1.74,11.92,11.92,0,0,1,4.77,5.12h7.92a19.28,19.28,0,0,0-7.59-9.11,23.57,23.57,0,0,0-23.34-.56,21.23,21.23,0,0,0-8,7.85Z"/><path class="cls-34" d="M1444.43,700.16v43.78h-7.17V724.79h-20.6v19.15h-7.18V700.16h7.18v18.77h20.6V700.16Z"/><path class="cls-35" d="M1444.77,744.27h-7.85V725.12H1417v19.15h-7.85V699.83H1417V718.6h19.93V699.83h7.85Zm-7.18-.67h6.51V700.5h-6.51v18.77h-21.27V700.5h-6.51v43.1h6.51V724.45h21.27Z"/><path class="cls-36" d="M649.62,804.58v10.33H647V792h2.6v10.2h13.25V792h2.59v23h-2.59V804.58Z"/><path class="cls-37" d="M665.6,815.06h-2.88V804.73h-13v10.33h-2.88V791.81h2.88V802h13v-10.2h2.88Zm-2.59-.29h2.3V792.1H663v10.2H649.47V792.1h-2.3v22.67h2.3V804.44H663Z"/><path class="cls-38" d="M702,807.94a11.73,11.73,0,0,1-2.39,3.79,11.47,11.47,0,0,1-3.71,2.61,11.74,11.74,0,0,1-13.25-2.56A11.45,11.45,0,0,1,680.3,808a12.36,12.36,0,0,1-.83-4.54,12.18,12.18,0,0,1,.85-4.55,12,12,0,0,1,2.39-3.79,11.53,11.53,0,0,1,8.5-3.57,11.71,11.71,0,0,1,4.77,1,11.38,11.38,0,0,1,3.69,2.57,11.6,11.6,0,0,1,2.38,3.78,12.33,12.33,0,0,1,.84,4.54A12.14,12.14,0,0,1,702,807.94Zm-2.51-8.18a9.07,9.07,0,0,0-1.88-3,9.17,9.17,0,0,0-2.87-2,8.59,8.59,0,0,0-3.63-.76,8.81,8.81,0,0,0-3.62.74,8.54,8.54,0,0,0-2.84,2,9.35,9.35,0,0,0-1.85,3,10,10,0,0,0-.68,3.69,10.18,10.18,0,0,0,.68,3.71,9,9,0,0,0,4.75,5,9.19,9.19,0,0,0,7.25,0,8.52,8.52,0,0,0,2.84-2,9.57,9.57,0,0,0,1.85-3,10,10,0,0,0,.68-3.69A10.14,10.14,0,0,0,699.52,799.76Z"/><path class="cls-39" d="M691.14,815.45a11.87,11.87,0,0,1-4.83-1,11.4,11.4,0,0,1-6.14-6.43,12.77,12.77,0,0,1,0-9.19,12.29,12.29,0,0,1,2.43-3.84,11.61,11.61,0,0,1,3.75-2.64,12.5,12.5,0,0,1,9.68,0,11.68,11.68,0,0,1,3.74,2.6,11.83,11.83,0,0,1,2.4,3.82,12.8,12.8,0,0,1,0,9.2h0a12.13,12.13,0,0,1-2.43,3.83,11.5,11.5,0,0,1-3.75,2.64A11.84,11.84,0,0,1,691.14,815.45Zm.07-23.75a11.59,11.59,0,0,0-4.73,1,11.3,11.3,0,0,0-3.66,2.57,11.89,11.89,0,0,0-2.37,3.75,12,12,0,0,0-.84,4.49,12.3,12.3,0,0,0,.83,4.49,11.09,11.09,0,0,0,6,6.26,11.45,11.45,0,0,0,4.71.94,11.58,11.58,0,0,0,4.73-.95,11.33,11.33,0,0,0,3.66-2.58,11.73,11.73,0,0,0,2.37-3.74,12.1,12.1,0,0,0,.84-4.49,12.3,12.3,0,0,0-.83-4.49,11.61,11.61,0,0,0-2.34-3.73,11.44,11.44,0,0,0-3.65-2.54A11.58,11.58,0,0,0,691.21,791.7Zm0,21.36a8.83,8.83,0,0,1-3.69-.77,9.3,9.3,0,0,1-2.91-2.07,9.19,9.19,0,0,1-1.92-3.06,10.45,10.45,0,0,1-.68-3.76,10.27,10.27,0,0,1,.68-3.74,9.66,9.66,0,0,1,1.88-3,8.83,8.83,0,0,1,2.89-2.05,8.94,8.94,0,0,1,3.68-.75,8.83,8.83,0,0,1,3.69.77,9.16,9.16,0,0,1,2.91,2.06,9.33,9.33,0,0,1,1.92,3.07,10.41,10.41,0,0,1,.68,3.76,10.3,10.3,0,0,1-.68,3.74,9.77,9.77,0,0,1-1.88,3,8.83,8.83,0,0,1-2.89,2A9.13,9.13,0,0,1,691.21,813.06Zm-.07-19a8.71,8.71,0,0,0-3.56.72,8.36,8.36,0,0,0-2.79,2,9.35,9.35,0,0,0-1.83,3,10.4,10.4,0,0,0,0,7.29,8.86,8.86,0,0,0,4.68,5,8.58,8.58,0,0,0,3.57.74,8.72,8.72,0,0,0,3.56-.73,8.48,8.48,0,0,0,2.79-2,9.4,9.4,0,0,0,1.83-3,9.92,9.92,0,0,0,.66-3.63,10.11,10.11,0,0,0-.66-3.66,8.88,8.88,0,0,0-4.68-5A8.58,8.58,0,0,0,691.14,794.1Z"/><path class="cls-40" d="M733.78,792h2.53v23h-2.07l-14.82-18.82v18.82h-2.53V792h2.43l14.46,18.4Z"/><path class="cls-41" d="M736.46,815.06h-2.29l0-.06-14.57-18.5v18.56h-2.81V791.81h2.64l0,.05,14.21,18.07V791.81h2.82Zm-2.15-.29h1.86V792.1h-2.24v18.67l-.26-.33L719.25,792.1H717v22.67h2.23v-19.1Z"/><path class="cls-42" d="M767.93,794.31h-14v7.84h12.54v2.37H753.92v8h14.17v2.36H751.33V792h16.6Z"/><path class="cls-43" d="M768.24,815.06h-17V791.81h16.89v2.65h-14V802H766.6v2.65H754.07v7.75h14.17Zm-16.76-.29H768V812.7H753.78v-8.33h12.53V802.3H753.78v-8.13h14V792.1H751.48Z"/><path class="cls-44" d="M784.1,799.14a2.94,2.94,0,0,0,.95,1.2,7.17,7.17,0,0,0,1.91,1,24.15,24.15,0,0,0,3.11.84,13.49,13.49,0,0,1,5.66,2.36,5.14,5.14,0,0,1,1.82,4.17,6,6,0,0,1-2.19,4.77,7.28,7.28,0,0,1-2.47,1.31,10.2,10.2,0,0,1-3.15.46,13.8,13.8,0,0,1-5-.89,14.24,14.24,0,0,1-4.35-2.75l1.61-1.9a13.49,13.49,0,0,0,3.64,2.44,10.43,10.43,0,0,0,4.23.8,6,6,0,0,0,3.73-1.08A3.46,3.46,0,0,0,795,809a4,4,0,0,0-.26-1.46,3,3,0,0,0-.92-1.16,6.45,6.45,0,0,0-1.83-1,23.67,23.67,0,0,0-3-.82,23.51,23.51,0,0,1-3.43-1,8.91,8.91,0,0,1-2.42-1.35,5,5,0,0,1-1.41-1.84,6.13,6.13,0,0,1-.46-2.5,5.62,5.62,0,0,1,.56-2.53,5.77,5.77,0,0,1,1.57-2,7.79,7.79,0,0,1,2.39-1.32,9.15,9.15,0,0,1,3-.48,12.75,12.75,0,0,1,4.41.7,13.3,13.3,0,0,1,3.66,2.09l-1.51,2a11.23,11.23,0,0,0-3.23-1.9,9.91,9.91,0,0,0-3.39-.59,6.35,6.35,0,0,0-2,.3,5.06,5.06,0,0,0-1.54.78,3.42,3.42,0,0,0-1,1.19,3.24,3.24,0,0,0-.34,1.47A4,4,0,0,0,784.1,799.14Z"/><path class="cls-45" d="M789.74,815.39a14,14,0,0,1-5.08-.9,14.4,14.4,0,0,1-4.39-2.78l-.11-.1,1.8-2.12.11.1a13.31,13.31,0,0,0,3.6,2.42,10.44,10.44,0,0,0,4.17.79,5.81,5.81,0,0,0,3.64-1,3.35,3.35,0,0,0,1.33-2.75,3.64,3.64,0,0,0-.25-1.4,2.74,2.74,0,0,0-.88-1.11,6.36,6.36,0,0,0-1.78-.93,24,24,0,0,0-3-.82,23.76,23.76,0,0,1-3.45-1,8.79,8.79,0,0,1-2.46-1.37,5.06,5.06,0,0,1-1.45-1.89,6.29,6.29,0,0,1-.48-2.56,5.86,5.86,0,0,1,.58-2.59,6,6,0,0,1,1.61-2,8.2,8.2,0,0,1,2.44-1.34,9.39,9.39,0,0,1,3.06-.48,13.13,13.13,0,0,1,4.46.7,13.62,13.62,0,0,1,3.7,2.12l.11.09-1.68,2.23-.12-.09a11,11,0,0,0-3.19-1.88,9.62,9.62,0,0,0-3.34-.58,6.33,6.33,0,0,0-2,.28,5,5,0,0,0-1.5.77,3.21,3.21,0,0,0-1,1.13,3.28,3.28,0,0,0-.32,1.42,3.78,3.78,0,0,0,.25,1.42h0a2.79,2.79,0,0,0,.9,1.14,7,7,0,0,0,1.87,1,22.4,22.4,0,0,0,3.09.83,13.77,13.77,0,0,1,5.72,2.4,5.26,5.26,0,0,1,1.88,4.28,6.42,6.42,0,0,1-.6,2.76,6.33,6.33,0,0,1-1.65,2.12,7.35,7.35,0,0,1-2.51,1.34A10.58,10.58,0,0,1,789.74,815.39Zm-9.18-3.8a14.27,14.27,0,0,0,4.2,2.63,13.74,13.74,0,0,0,5,.88,10.29,10.29,0,0,0,3.11-.46,7.25,7.25,0,0,0,2.42-1.28,5.91,5.91,0,0,0,2.13-4.66,5,5,0,0,0-1.76-4.06,13.52,13.52,0,0,0-5.6-2.33,21.48,21.48,0,0,1-3.13-.85,6.92,6.92,0,0,1-1.95-1,3.13,3.13,0,0,1-1-1.26h0a4.13,4.13,0,0,1-.28-1.53,3.56,3.56,0,0,1,.36-1.55,3.67,3.67,0,0,1,1-1.23,5.23,5.23,0,0,1,1.58-.81,6.72,6.72,0,0,1,2.07-.3,10.19,10.19,0,0,1,3.44.59,11.37,11.37,0,0,1,3.16,1.84l1.33-1.77a13,13,0,0,0-3.51-2,12.51,12.51,0,0,0-4.36-.69,9.11,9.11,0,0,0-3,.47,7.41,7.41,0,0,0-2.35,1.29,5.62,5.62,0,0,0-2.08,4.4,6,6,0,0,0,.45,2.44,4.83,4.83,0,0,0,1.38,1.79,8.4,8.4,0,0,0,2.37,1.32,23,23,0,0,0,3.42,1,21.7,21.7,0,0,1,3,.83,6.74,6.74,0,0,1,1.87,1,3.14,3.14,0,0,1,1,1.23,4,4,0,0,1,.27,1.51,3.59,3.59,0,0,1-1.45,3,6.12,6.12,0,0,1-3.81,1.11,10.52,10.52,0,0,1-4.29-.82,13.61,13.61,0,0,1-3.57-2.36Z"/><path class="cls-46" d="M819.53,814.91h-2.59V794.35h-7.71V792h18v2.4h-7.71Z"/><path class="cls-47" d="M819.67,815.06h-2.88V794.49h-7.71v-2.68h18.3v2.68h-7.71Zm-2.59-.29h2.3V794.2h7.71v-2.1H809.37v2.1h7.71Z"/><path class="cls-48" d="M876.85,812.93a11.88,11.88,0,0,1-2.08,1.26,12.33,12.33,0,0,1-2.4.82,12.47,12.47,0,0,1-2.85.3,11.29,11.29,0,0,1-8.24-3.43,11.55,11.55,0,0,1-2.41-3.76,12.81,12.81,0,0,1,0-9.28,12,12,0,0,1,2.41-3.79,11.32,11.32,0,0,1,8.34-3.49,14.28,14.28,0,0,1,2.83.26,12,12,0,0,1,2.35.74,10.62,10.62,0,0,1,2,1.15,17.47,17.47,0,0,1,1.77,1.49l-1.77,1.9a14.26,14.26,0,0,0-3.17-2.26,9.32,9.32,0,0,0-7.57-.17,8.5,8.5,0,0,0-2.82,2,9.06,9.06,0,0,0-1.87,3,10.12,10.12,0,0,0-.68,3.72,10.27,10.27,0,0,0,.68,3.74,9.15,9.15,0,0,0,1.87,3,8.64,8.64,0,0,0,2.82,2,8.26,8.26,0,0,0,3.52.74,8.86,8.86,0,0,0,4.07-.87A14.24,14.24,0,0,0,877,809.6l1.7,1.67A15.84,15.84,0,0,1,876.85,812.93Z"/><path class="cls-49" d="M869.52,815.45a11.46,11.46,0,0,1-4.65-.93,11.4,11.4,0,0,1-6.13-6.34,12.49,12.49,0,0,1-.88-4.71,12.33,12.33,0,0,1,.88-4.68,11.87,11.87,0,0,1,2.44-3.84,11.41,11.41,0,0,1,3.72-2.59,11.64,11.64,0,0,1,4.72-1,13.9,13.9,0,0,1,2.86.27,12.26,12.26,0,0,1,2.38.75,10.83,10.83,0,0,1,2,1.16,16.74,16.74,0,0,1,1.79,1.5l.1.1-2,2.12-.11-.1a14.18,14.18,0,0,0-3.13-2.24,8.73,8.73,0,0,0-10.23,1.8,9.35,9.35,0,0,0-1.84,3,10.05,10.05,0,0,0-.66,3.67,10.2,10.2,0,0,0,.66,3.69,9.29,9.29,0,0,0,1.84,3,8.76,8.76,0,0,0,2.78,2,8.32,8.32,0,0,0,3.46.73,8.68,8.68,0,0,0,4-.86,14,14,0,0,0,3.32-2.42l.1-.09,1.91,1.87-.1.1a16.21,16.21,0,0,1-1.87,1.67h0a11.67,11.67,0,0,1-4.54,2.11A12.8,12.8,0,0,1,869.52,815.45Zm.1-23.75a11.22,11.22,0,0,0-4.6.93,11.1,11.1,0,0,0-3.63,2.52,11.82,11.82,0,0,0-2.38,3.74,12.68,12.68,0,0,0,0,9.18,11.1,11.1,0,0,0,10.51,7.09,12.87,12.87,0,0,0,2.82-.29,11.72,11.72,0,0,0,2.36-.81,10.78,10.78,0,0,0,2.06-1.25h0a16.68,16.68,0,0,0,1.74-1.54L877,809.8a14.06,14.06,0,0,1-3.27,2.37,9.06,9.06,0,0,1-4.14.89,8.69,8.69,0,0,1-3.58-.75,9.07,9.07,0,0,1-2.87-2,9.45,9.45,0,0,1-1.9-3.07,10.87,10.87,0,0,1,0-7.57,9.42,9.42,0,0,1,1.9-3,9.23,9.23,0,0,1,10.57-1.87,14.63,14.63,0,0,1,3.09,2.19l1.58-1.7a19.26,19.26,0,0,0-1.66-1.38,10.29,10.29,0,0,0-2-1.13,12.35,12.35,0,0,0-2.32-.73A14,14,0,0,0,869.62,791.7Z"/><path class="cls-50" d="M907.57,814.91,900.91,806h-6.56v8.92h-2.59V792h9.87a11.41,11.41,0,0,1,3.43.49,7.81,7.81,0,0,1,2.6,1.4,6.2,6.2,0,0,1,1.68,2.16,6.64,6.64,0,0,1,.59,2.81,7,7,0,0,1-.46,2.58,6,6,0,0,1-1.3,2,7.33,7.33,0,0,1-2,1.39,9.29,9.29,0,0,1-2.49.79l7,9.37Zm-1.78-19.36a6.94,6.94,0,0,0-4.34-1.2h-7.1v9.34h7.07a8.18,8.18,0,0,0,2.37-.32,6,6,0,0,0,1.87-.94,4.24,4.24,0,0,0,1.23-1.5,4.37,4.37,0,0,0,.45-2A4,4,0,0,0,905.79,795.55Z"/><path class="cls-51" d="M911,815.06h-3.55l-6.65-8.92h-6.35v8.92h-2.88V791.81h10a11,11,0,0,1,3.47.5,7.79,7.79,0,0,1,2.66,1.42,6.36,6.36,0,0,1,1.71,2.21,7.36,7.36,0,0,1,.13,5.5,6.15,6.15,0,0,1-1.32,2,7.46,7.46,0,0,1-2,1.42,9,9,0,0,1-2.3.76Zm-3.4-.29h2.82l-7-9.33.23-.05a8.62,8.62,0,0,0,2.46-.77,7,7,0,0,0,1.94-1.37,5.57,5.57,0,0,0,1.26-1.92,6.62,6.62,0,0,0,.45-2.52,6.46,6.46,0,0,0-.57-2.74,6.18,6.18,0,0,0-1.64-2.12,7.56,7.56,0,0,0-2.56-1.37,11,11,0,0,0-3.38-.48H891.9v22.67h2.3v-8.92H901Zm-6.22-10.93H894.2V794.2h7.25a7.14,7.14,0,0,1,4.43,1.23,4.2,4.2,0,0,1,1.6,3.49A4.5,4.5,0,0,1,907,801a4.43,4.43,0,0,1-1.27,1.55,5.87,5.87,0,0,1-1.92,1A8.07,8.07,0,0,1,901.42,803.84Zm-6.93-.29h6.93a8.08,8.08,0,0,0,2.32-.32,5.43,5.43,0,0,0,1.83-.92,4.13,4.13,0,0,0,1.19-1.44,4.3,4.3,0,0,0,.43-2,3.91,3.91,0,0,0-1.49-3.26h0a6.86,6.86,0,0,0-4.25-1.17h-7Z"/><path class="cls-52" d="M933,814.91h-2.59v-9.08L920.82,792H924l7.72,11.48L939.48,792h3L933,805.79Z"/><path class="cls-53" d="M933.1,815.06h-2.88v-9.19l-9.68-14.06H924l.05.06,7.6,11.3,7.71-11.36h3.38l-9.68,14Zm-2.59-.29h2.3v-9l9.41-13.65h-2.66l-7.87,11.59-7.8-11.59h-2.8l9.42,13.68Z"/><path class="cls-54" d="M971.66,802.55a7,7,0,0,1-1.95,2.36,8.68,8.68,0,0,1-2.87,1.43,12.72,12.72,0,0,1-3.48.47h-5.57v8.1h-2.6V792h8.6a11.47,11.47,0,0,1,3.52.51A8.26,8.26,0,0,1,970,793.9a6.38,6.38,0,0,1,1.74,2.3,7.54,7.54,0,0,1,.6,3.07A7.14,7.14,0,0,1,971.66,802.55Zm-3.56-6.94a7.35,7.35,0,0,0-4.49-1.26h-5.82v10.1h5.69a8.74,8.74,0,0,0,2.58-.36,6.1,6.1,0,0,0,2-1,4.65,4.65,0,0,0,1.29-1.61,4.87,4.87,0,0,0,.44-2.08A4.38,4.38,0,0,0,968.1,795.61Z"/><path class="cls-55" d="M957.93,815.06h-2.88V791.81h8.74a11.84,11.84,0,0,1,3.57.51,8.51,8.51,0,0,1,2.77,1.47,6.44,6.44,0,0,1,1.78,2.35,7.67,7.67,0,0,1,.62,3.13,7.24,7.24,0,0,1-.74,3.34l-.13-.06.13.06a7.08,7.08,0,0,1-2,2.41,8.71,8.71,0,0,1-2.92,1.46,13,13,0,0,1-3.52.48h-5.43Zm-2.59-.29h2.3v-8.1h5.72a12.48,12.48,0,0,0,3.44-.47,8.39,8.39,0,0,0,2.82-1.41,6.71,6.71,0,0,0,1.91-2.31,7,7,0,0,0,.71-3.21,7.29,7.29,0,0,0-.6-3,6,6,0,0,0-1.7-2.24,7.83,7.83,0,0,0-2.67-1.42,11.61,11.61,0,0,0-3.48-.5h-8.45Zm8.14-10.17h-5.84V794.2h6a7.55,7.55,0,0,1,4.57,1.29,4.54,4.54,0,0,1,1.76,3.88,5,5,0,0,1-.46,2.14,4.73,4.73,0,0,1-1.33,1.66,6.22,6.22,0,0,1-2,1.06A9,9,0,0,1,963.48,804.6Zm-5.55-.29h5.55A8.52,8.52,0,0,0,966,804a5.73,5.73,0,0,0,2-1,4.44,4.44,0,0,0,1.25-1.55,4.81,4.81,0,0,0,.43-2,4.24,4.24,0,0,0-1.64-3.64,7.22,7.22,0,0,0-4.4-1.24h-5.68Z"/><path class="cls-56" d="M994.29,814.91H991.7V794.35H984V792h18v2.4h-7.71Z"/><path class="cls-57" d="M994.44,815.06h-2.88V794.49h-7.71v-2.68h18.3v2.68h-7.71Zm-2.59-.29h2.3V794.2h7.71v-2.1H984.14v2.1h7.71Z"/><path class="cls-58" d="M1035.39,807.94a11.56,11.56,0,0,1-2.39,3.79,11.36,11.36,0,0,1-3.71,2.61,11.74,11.74,0,0,1-13.25-2.56,11.45,11.45,0,0,1-2.38-3.77,12.57,12.57,0,0,1-.83-4.54,12.12,12.12,0,0,1,3.24-8.34,11.53,11.53,0,0,1,8.5-3.57,11.71,11.71,0,0,1,4.77,1,11.38,11.38,0,0,1,3.69,2.57,11.6,11.6,0,0,1,2.38,3.78,12.33,12.33,0,0,1,.84,4.54A12.14,12.14,0,0,1,1035.39,807.94Zm-2.5-8.18a9,9,0,0,0-4.76-5,8.55,8.55,0,0,0-3.63-.76,8.81,8.81,0,0,0-3.62.74,8.65,8.65,0,0,0-2.84,2,9.53,9.53,0,0,0-1.85,3,10,10,0,0,0-.67,3.69,10.18,10.18,0,0,0,.67,3.71,9.19,9.19,0,0,0,1.88,3,9,9,0,0,0,2.88,2,9.17,9.17,0,0,0,7.24,0,8.52,8.52,0,0,0,2.84-2,9.59,9.59,0,0,0,1.86-3,10.24,10.24,0,0,0,.67-3.69A10.35,10.35,0,0,0,1032.89,799.76Z"/><path class="cls-59" d="M1024.5,815.45a11.87,11.87,0,0,1-4.83-1,11.49,11.49,0,0,1-6.14-6.43,12.6,12.6,0,0,1-.85-4.59,12.45,12.45,0,0,1,.86-4.6A12.17,12.17,0,0,1,1016,795a11.61,11.61,0,0,1,3.75-2.64,12.5,12.5,0,0,1,9.68,0,11.68,11.68,0,0,1,3.74,2.6,12,12,0,0,1,2.41,3.82,12.68,12.68,0,0,1,.84,4.6,12.49,12.49,0,0,1-.86,4.6h0a12.1,12.1,0,0,1-2.42,3.83,11.65,11.65,0,0,1-3.76,2.64A11.81,11.81,0,0,1,1024.5,815.45Zm.07-23.75a11.59,11.59,0,0,0-4.73,1,11.3,11.3,0,0,0-3.66,2.57,11.89,11.89,0,0,0-2.37,3.75,12.49,12.49,0,0,0,0,9,11.42,11.42,0,0,0,2.35,3.72,11.09,11.09,0,0,0,3.64,2.54,12.26,12.26,0,0,0,9.44,0,11.22,11.22,0,0,0,3.66-2.58,11.73,11.73,0,0,0,2.37-3.74h0a12.1,12.1,0,0,0,.84-4.49,12.3,12.3,0,0,0-.83-4.49,11.27,11.27,0,0,0-2.34-3.73,11.44,11.44,0,0,0-3.65-2.54A11.58,11.58,0,0,0,1024.57,791.7Zm0,21.36a8.83,8.83,0,0,1-3.69-.77,9.3,9.3,0,0,1-2.91-2.07,9.19,9.19,0,0,1-1.92-3.06,10.45,10.45,0,0,1-.68-3.76,10.3,10.3,0,0,1,.68-3.74,9.5,9.5,0,0,1,1.89-3,8.68,8.68,0,0,1,2.88-2.05,9,9,0,0,1,3.68-.75,8.83,8.83,0,0,1,3.69.77,9.14,9.14,0,0,1,4.83,5.13h0a10.41,10.41,0,0,1,.68,3.76,10.3,10.3,0,0,1-.68,3.74,9.66,9.66,0,0,1-1.88,3,8.83,8.83,0,0,1-2.89,2A9.13,9.13,0,0,1,1024.57,813.06Zm-.07-19a8.71,8.71,0,0,0-3.56.72,8.36,8.36,0,0,0-2.79,2,9.35,9.35,0,0,0-1.83,3,10.4,10.4,0,0,0,0,7.29,8.83,8.83,0,0,0,4.69,5,8.53,8.53,0,0,0,3.56.74,8.8,8.8,0,0,0,3.57-.73,8.48,8.48,0,0,0,2.79-2,9.44,9.44,0,0,0,1.82-3,9.92,9.92,0,0,0,.66-3.63,10.11,10.11,0,0,0-.66-3.66,9.17,9.17,0,0,0-1.86-3,9,9,0,0,0-2.82-2A8.58,8.58,0,0,0,1024.5,794.1Z"/><path class="cls-60" d="M1084.43,814.91l-6.66-8.92h-6.56v8.92h-2.59V792h9.88a11.34,11.34,0,0,1,3.42.49,7.76,7.76,0,0,1,2.61,1.4,6.17,6.17,0,0,1,1.67,2.16,6.49,6.49,0,0,1,.59,2.81,6.78,6.78,0,0,1-.46,2.58,5.81,5.81,0,0,1-1.29,2,7.38,7.38,0,0,1-2,1.39,9.07,9.07,0,0,1-2.49.79l7,9.37Zm-1.77-19.36a6.94,6.94,0,0,0-4.34-1.2h-7.11v9.34h7.07a8.09,8.09,0,0,0,2.37-.32,6,6,0,0,0,1.88-.94,4.28,4.28,0,0,0,1.67-3.51A4,4,0,0,0,1082.66,795.55Z"/><path class="cls-61" d="M1087.91,815.06h-3.55l-6.66-8.92h-6.34v8.92h-2.88V791.81h10a11.1,11.1,0,0,1,3.47.5,7.82,7.82,0,0,1,2.65,1.42,6.25,6.25,0,0,1,1.71,2.21,6.62,6.62,0,0,1,.61,2.87,7,7,0,0,1-.47,2.63,6,6,0,0,1-1.33,2,7.56,7.56,0,0,1-2,1.42,9.14,9.14,0,0,1-2.3.76Zm-3.4-.29h2.81l-7-9.33.24-.05a8.55,8.55,0,0,0,2.45-.77,7,7,0,0,0,2-1.37,5.62,5.62,0,0,0,1.26-1.92,6.62,6.62,0,0,0,.45-2.52,6.46,6.46,0,0,0-.58-2.74,6,6,0,0,0-1.63-2.12,7.65,7.65,0,0,0-2.56-1.37,11.13,11.13,0,0,0-3.38-.48h-9.73v22.67h2.3v-8.92h6.78Zm-6.23-10.93h-7.21V794.2h7.25a7.14,7.14,0,0,1,4.43,1.23,4.2,4.2,0,0,1,1.6,3.49,4.63,4.63,0,0,1-.46,2.07,4.39,4.39,0,0,1-1.28,1.55,5.77,5.77,0,0,1-1.92,1A8,8,0,0,1,1078.28,803.84Zm-6.92-.29h6.92a8.2,8.2,0,0,0,2.33-.32,5.62,5.62,0,0,0,1.83-.92,4.26,4.26,0,0,0,1.19-1.44,4.4,4.4,0,0,0,.43-2,3.91,3.91,0,0,0-1.49-3.26h0a6.86,6.86,0,0,0-4.25-1.17h-7Z"/><path class="cls-62" d="M1117.46,794.31h-14v7.84H1116v2.37h-12.53v8h14.17v2.36h-16.76V792h16.59Z"/><path class="cls-63" d="M1117.77,815.06h-17V791.81h16.89v2.65h-14V802h12.53v2.65H1103.6v7.75h14.17Zm-16.76-.29h16.47V812.7h-14.17v-8.33h12.53V802.3h-12.53v-8.13h14V792.1H1101Z"/><path class="cls-64" d="M1148.66,792h2.79l-9.88,23.13h-2.29L1129.4,792h2.89l8.17,19.78Z"/><path class="cls-65" d="M1141.67,815.22h-2.49l0-.09-10-23.32h3.21l0,.09,8,19.45,8.1-19.54h3.11l-.09.2Zm-2.3-.29h2.11l9.75-22.83h-2.47l-8.3,20-.14-.32-8.13-19.69h-2.57Z"/><path class="cls-66" d="M1167.32,792v23h-2.59V792Z"/><path class="cls-67" d="M1167.47,815.06h-2.88V791.81h2.88Zm-2.59-.29h2.3V792.1h-2.3Z"/><path class="cls-68" d="M1199.17,794.31h-14v7.84h12.53v2.37h-12.53v8h14.17v2.36h-16.77V792h16.6Z"/><path class="cls-69" d="M1199.48,815.06h-17V791.81h16.89v2.65h-14V802h12.53v2.65h-12.53v7.75h14.17Zm-16.76-.29h16.47V812.7H1185v-8.33h12.53V802.3H1185v-8.13h14V792.1h-16.31Z"/><path class="cls-70" d="M1227,791.89h2.13l6.3,19.19L1242,792h2.72l-8.2,23.13h-2.2l-6.3-18.63-6.33,18.63h-2.16l-8.2-23.13h2.82l6.56,19.13Z"/><path class="cls-71" d="M1236.6,815.22h-2.4l0-.1L1228,796.9l-6.22,18.32h-2.37l0-.09-8.27-23.32h3.13l0,.09,6.42,18.72,6.19-18.88h2.34l0,.1,6.16,18.78,6.45-18.81h3l-.07.19Zm-2.19-.29h2l8.09-22.83h-2.41l-6.67,19.43-.13-.41L1229,792h-1.92l-6.4,19.5-.14-.41-6.52-19h-2.52l8.1,22.83h2L1228,796Z"/><path class="cls-72" d="M1259.53,799.14a2.86,2.86,0,0,0,1,1.2,7.09,7.09,0,0,0,1.9,1,24.82,24.82,0,0,0,3.12.84,13.55,13.55,0,0,1,5.66,2.36,5.14,5.14,0,0,1,1.82,4.17,6.12,6.12,0,0,1-2.19,4.77,7.37,7.37,0,0,1-2.47,1.31,10.2,10.2,0,0,1-3.15.46,13.82,13.82,0,0,1-5-.89,14.2,14.2,0,0,1-4.34-2.75l1.6-1.9a13.54,13.54,0,0,0,3.65,2.44,10.37,10.37,0,0,0,4.23.8,5.92,5.92,0,0,0,3.72-1.08,3.43,3.43,0,0,0,1.39-2.86,3.76,3.76,0,0,0-.26-1.46,2.84,2.84,0,0,0-.92-1.16,6.52,6.52,0,0,0-1.82-1,23.67,23.67,0,0,0-3-.82,24,24,0,0,1-3.44-1,8.84,8.84,0,0,1-2.41-1.35,5,5,0,0,1-1.42-1.84,6.3,6.3,0,0,1-.46-2.5,5.67,5.67,0,0,1,2.14-4.51,7.56,7.56,0,0,1,2.39-1.32,9.11,9.11,0,0,1,3-.48,12.83,12.83,0,0,1,4.41.7,13.3,13.3,0,0,1,3.66,2.09l-1.51,2a11.23,11.23,0,0,0-3.23-1.9,10,10,0,0,0-3.4-.59,6.44,6.44,0,0,0-2,.3,5.18,5.18,0,0,0-1.54.78,3.5,3.5,0,0,0-1,1.19,3.25,3.25,0,0,0-.35,1.47A3.83,3.83,0,0,0,1259.53,799.14Z"/><path class="cls-73" d="M1265.17,815.39a14.09,14.09,0,0,1-5.09-.9,14.4,14.4,0,0,1-4.39-2.78l-.1-.1,1.79-2.12.11.1a13.51,13.51,0,0,0,3.61,2.42,10.41,10.41,0,0,0,4.17.79,5.78,5.78,0,0,0,3.63-1,3.33,3.33,0,0,0,1.34-2.75,3.84,3.84,0,0,0-.25-1.4,2.76,2.76,0,0,0-.88-1.11,6.36,6.36,0,0,0-1.78-.93,24.5,24.5,0,0,0-3-.82,23.92,23.92,0,0,1-3.46-1,8.83,8.83,0,0,1-2.46-1.37,5.16,5.16,0,0,1-1.45-1.89,6.46,6.46,0,0,1-.47-2.56,5.89,5.89,0,0,1,.57-2.59,6.1,6.1,0,0,1,1.61-2,8.2,8.2,0,0,1,2.44-1.34,9.46,9.46,0,0,1,3.07-.48,13.13,13.13,0,0,1,4.46.7,13.62,13.62,0,0,1,3.7,2.12l.11.09-1.69,2.23-.11-.09a11.1,11.1,0,0,0-3.19-1.88,9.67,9.67,0,0,0-3.35-.58,6.38,6.38,0,0,0-2,.28,5.16,5.16,0,0,0-1.5.77,3.18,3.18,0,0,0-.94,1.13,3.15,3.15,0,0,0-.33,1.42,3.78,3.78,0,0,0,.25,1.42h0a2.82,2.82,0,0,0,.91,1.14,6.8,6.8,0,0,0,1.86,1,23,23,0,0,0,3.1.83,13.83,13.83,0,0,1,5.72,2.4,5.29,5.29,0,0,1,1.87,4.28,6.27,6.27,0,0,1-.6,2.76,6.18,6.18,0,0,1-1.64,2.12,7.4,7.4,0,0,1-2.52,1.34A10.46,10.46,0,0,1,1265.17,815.39Zm-9.18-3.8a14.27,14.27,0,0,0,4.2,2.63,13.7,13.7,0,0,0,5,.88,10.18,10.18,0,0,0,3.1-.46,7.16,7.16,0,0,0,2.42-1.28,5.88,5.88,0,0,0,1.57-2,6,6,0,0,0,.57-2.63,5,5,0,0,0-1.77-4.06,13.53,13.53,0,0,0-5.59-2.33,22,22,0,0,1-3.14-.85,6.84,6.84,0,0,1-1.94-1,3.16,3.16,0,0,1-1-1.26h0a4.13,4.13,0,0,1-.27-1.53,3.43,3.43,0,0,1,.36-1.55,3.55,3.55,0,0,1,1-1.23,5.11,5.11,0,0,1,1.58-.81,6.65,6.65,0,0,1,2.06-.3,10.29,10.29,0,0,1,3.45.59,11.32,11.32,0,0,1,3.15,1.84l1.34-1.77a13,13,0,0,0-3.51-2,12.59,12.59,0,0,0-4.36-.69,9.11,9.11,0,0,0-3,.47,7.41,7.41,0,0,0-2.35,1.29,5.66,5.66,0,0,0-1.54,1.94,5.58,5.58,0,0,0-.54,2.46,6,6,0,0,0,.45,2.44,4.7,4.7,0,0,0,1.37,1.79,8.36,8.36,0,0,0,2.38,1.32,23.2,23.2,0,0,0,3.41,1,22.31,22.31,0,0,1,3,.83,6.67,6.67,0,0,1,1.86,1,3.17,3.17,0,0,1,1,1.23,4,4,0,0,1,.27,1.51,3.61,3.61,0,0,1-1.45,3,6.12,6.12,0,0,1-3.81,1.11,10.49,10.49,0,0,1-4.29-.82,13.61,13.61,0,0,1-3.57-2.36Z"/></svg>